<svg width="36" height="49" viewBox="0 0 36 49" fill="none" xmlns="http://www.w3.org/2000/svg">
<rect width="4.12302" height="18.1275" transform="matrix(0.641038 -0.767509 0.786562 0.617511 0 9.1748)" fill="#1A111E"/>
<path d="M7.16668 33.2302L11.7798 36.2023L26.2143 16.6566L29.9355 19.0541L29.0473 8.21106L17.88 11.287L21.6012 13.6845L7.16668 33.2302Z" fill="#1A111E"/>
<line x1="0.914283" y1="-0.914283" x2="25.5027" y2="-0.914283" transform="matrix(-0.594063 0.804419 -0.840635 -0.541601 25.6309 19.184)" stroke="#1A111E" stroke-width="1.82857" stroke-linecap="round"/>
<line x1="0.457141" y1="-0.457141" x2="25.9598" y2="-0.457141" transform="matrix(-0.594063 0.804419 -0.840635 -0.541601 25.4658 22.2349)" stroke="#1A111E" stroke-width="0.914283" stroke-linecap="round"/>
<line x1="0.228571" y1="-0.228571" x2="26.1884" y2="-0.228571" transform="matrix(-0.594063 0.804419 -0.840635 -0.541601 25.4834 24.7145)" stroke="#1A111E" stroke-width="0.457141" stroke-linecap="round"/>
<line x1="0.137142" y1="-0.137142" x2="26.2798" y2="-0.137142" transform="matrix(-0.594063 0.804419 -0.840635 -0.541601 25.4297 26.7496)" stroke="#1A111E" stroke-width="0.274285" stroke-linecap="round"/>
<path d="M31.1019 8.97174L30.9634 5.93913L15.9565 10.0352" stroke="#1A111E" stroke-width="1.82857" stroke-linecap="round"/>
<path d="M32.4427 6.80463L32.312 3.94368L18.1546 7.80787" stroke="#1A111E" stroke-width="0.914283" stroke-linecap="round"/>
<path d="M33.2874 5.36421L33.1567 2.50325L18.9993 6.36744" stroke="#1A111E" stroke-width="0.457141" stroke-linecap="round"/>
<path d="M34.2542 3.86091L34.1235 0.999954L19.9661 4.86414" stroke="#1A111E" stroke-width="0.274285" stroke-linecap="round"/>
</svg>
